# xmcd CD database file
#
# Track frame offsets:
#	150
#	16750
#	35050
#	53097
#	70480
#	89045
#	106067
#	128077
#	145285
#	163515
#
# Disc length: 2550 seconds
#
# Revision: 0
# Processed by: cddbd v1.5PL3 Copyright (c) Steve Scherf et al.
# Submitted via: CDex 1.50
#
DISCID=8609f40a
DTITLE=加藤紀子 - de beaux
DYEAR=1994
DGENRE=JPop
TTITLE0=今度私どこか連れていって下さいよ
TTITLE1=この道を歩いてく
TTITLE2=HISTORY BOOK
TTITLE3=Melody
TTITLE4=いつの日か
TTITLE5=DO-して
TTITLE6=ちょっと言わせて！
TTITLE7=引き裂かないで二人を
TTITLE8=思いきり泣いていい
TTITLE9=ねえ？だからおねがい…
EXTD=YEAR: 1994/03/10
EXTT0=
EXTT1=
EXTT2=
EXTT3=
EXTT4=
EXTT5=
EXTT6=
EXTT7=
EXTT8=
EXTT9=
PLAYORDER=
